<?xml version="1.0" encoding="UTF-8" standalone="no"?>
<!DOCTYPE svg PUBLIC "-//W3C//DTD SVG 1.1//EN"
 "http://www.w3.org/Graphics/SVG/1.1/DTD/svg11.dtd">
<!-- Generated by graphviz version 2.43.0 (0)
 -->
<!-- Title: pill_dispenser Pages: 1 -->
<svg width="676pt" height="779pt"
 viewBox="0.00 0.00 676.30 778.80" xmlns="http://www.w3.org/2000/svg" xmlns:xlink="http://www.w3.org/1999/xlink">
<g id="graph0" class="graph" transform="scale(1 1) rotate(0) translate(50.4 728.4)">
<title>pill_dispenser</title>
<polygon fill="#0a0a0a" stroke="transparent" points="-50.4,50.4 -50.4,-728.4 625.9,-728.4 625.9,50.4 -50.4,50.4"/>
<!-- IDLE -->
<g id="node1" class="node">
<title>IDLE</title>
<path fill="#111111" stroke="#252525" stroke-width="1.2" d="M331.5,-678C331.5,-678 293.5,-678 293.5,-678 287.5,-678 281.5,-672 281.5,-666 281.5,-666 281.5,-654 281.5,-654 281.5,-648 287.5,-642 293.5,-642 293.5,-642 331.5,-642 331.5,-642 337.5,-642 343.5,-648 343.5,-654 343.5,-654 343.5,-666 343.5,-666 343.5,-672 337.5,-678 331.5,-678"/>
<text text-anchor="middle" x="312.5" y="-657.2" font-family="Helvetica,Arial,sans-serif" font-size="11.00" fill="#f0ede8">Idle</text>
</g>
<!-- TRIGGERED -->
<g id="node2" class="node">
<title>TRIGGERED</title>
<path fill="#1a1a2e" stroke="#252545" stroke-width="1.2" d="M213.5,-571C213.5,-571 99.5,-571 99.5,-571 93.5,-571 87.5,-565 87.5,-559 87.5,-559 87.5,-547 87.5,-547 87.5,-541 93.5,-535 99.5,-535 99.5,-535 213.5,-535 213.5,-535 219.5,-535 225.5,-541 225.5,-547 225.5,-547 225.5,-559 225.5,-559 225.5,-565 219.5,-571 213.5,-571"/>
<text text-anchor="middle" x="156.5" y="-550.2" font-family="Helvetica,Arial,sans-serif" font-size="11.00" fill="#9090d0">Dispense Triggered</text>
</g>
<!-- IDLE&#45;&gt;TRIGGERED -->
<g id="edge1" class="edge">
<title>IDLE&#45;&gt;TRIGGERED</title>
<path fill="none" stroke="#404040" d="M281.48,-658.31C247.01,-655.75 192.41,-645.98 163.5,-611 155.98,-601.9 153.92,-589.02 153.88,-577.81"/>
<polygon fill="#404040" stroke="#404040" points="156.16,-577.66 154.08,-571.09 151.61,-577.52 156.16,-577.66"/>
<text text-anchor="middle" x="217.5" y="-604.2" font-family="Helvetica,Arial,sans-serif" font-size="8.50" fill="#606060"> &#160;MQTT dispense command &#160;</text>
</g>
<!-- MOVING -->
<g id="node3" class="node">
<title>MOVING</title>
<path fill="#1a1a2e" stroke="#252545" stroke-width="1.2" d="M171.5,-464C171.5,-464 73.5,-464 73.5,-464 67.5,-464 61.5,-458 61.5,-452 61.5,-452 61.5,-440 61.5,-440 61.5,-434 67.5,-428 73.5,-428 73.5,-428 171.5,-428 171.5,-428 177.5,-428 183.5,-434 183.5,-440 183.5,-440 183.5,-452 183.5,-452 183.5,-458 177.5,-464 171.5,-464"/>
<text text-anchor="middle" x="122.5" y="-443.2" font-family="Helvetica,Arial,sans-serif" font-size="11.00" fill="#9090d0">Cylinder Moving</text>
</g>
<!-- TRIGGERED&#45;&gt;MOVING -->
<g id="edge2" class="edge">
<title>TRIGGERED&#45;&gt;MOVING</title>
<path fill="none" stroke="#404040" d="M150.89,-534.66C145.19,-517.08 136.34,-489.76 130.04,-470.29"/>
<polygon fill="#404040" stroke="#404040" points="132.18,-469.5 128.01,-464.02 127.85,-470.9 132.18,-469.5"/>
<text text-anchor="middle" x="193" y="-497.2" font-family="Helvetica,Arial,sans-serif" font-size="8.50" fill="#606060"> &#160;sensor baseline sampled &#160;</text>
</g>
<!-- AWAITING_OCC -->
<g id="node4" class="node">
<title>AWAITING_OCC</title>
<path fill="#1a1a2e" stroke="#252545" stroke-width="1.2" d="M123,-357C123,-357 12,-357 12,-357 6,-357 0,-351 0,-345 0,-345 0,-333 0,-333 0,-327 6,-321 12,-321 12,-321 123,-321 123,-321 129,-321 135,-327 135,-333 135,-333 135,-345 135,-345 135,-351 129,-357 123,-357"/>
<text text-anchor="middle" x="67.5" y="-336.2" font-family="Helvetica,Arial,sans-serif" font-size="11.00" fill="#9090d0">Awaiting Occlusion</text>
</g>
<!-- MOVING&#45;&gt;AWAITING_OCC -->
<g id="edge3" class="edge">
<title>MOVING&#45;&gt;AWAITING_OCC</title>
<path fill="none" stroke="#404040" d="M113.42,-427.66C104.13,-409.92 89.65,-382.28 79.43,-362.78"/>
<polygon fill="#404040" stroke="#404040" points="81.44,-361.72 76.41,-357.02 77.41,-363.83 81.44,-361.72"/>
<text text-anchor="middle" x="150.5" y="-390.2" font-family="Helvetica,Arial,sans-serif" font-size="8.50" fill="#606060"> &#160;encoder confirms position &#160;</text>
</g>
<!-- PILL_DET -->
<g id="node5" class="node">
<title>PILL_DET</title>
<path fill="#1a2e1a" stroke="#2a402a" stroke-width="1.2" d="M163,-250C163,-250 82,-250 82,-250 76,-250 70,-244 70,-238 70,-238 70,-226 70,-226 70,-220 76,-214 82,-214 82,-214 163,-214 163,-214 169,-214 175,-220 175,-226 175,-226 175,-238 175,-238 175,-244 169,-250 163,-250"/>
<text text-anchor="middle" x="122.5" y="-229.2" font-family="Helvetica,Arial,sans-serif" font-size="11.00" fill="#6db86d">Pill Detected</text>
</g>
<!-- AWAITING_OCC&#45;&gt;PILL_DET -->
<g id="edge4" class="edge">
<title>AWAITING_OCC&#45;&gt;PILL_DET</title>
<path fill="none" stroke="#404040" d="M76.58,-320.66C85.87,-302.92 100.35,-275.28 110.57,-255.78"/>
<polygon fill="#404040" stroke="#404040" points="112.59,-256.83 113.59,-250.02 108.56,-254.72 112.59,-256.83"/>
<text text-anchor="middle" x="153" y="-283.2" font-family="Helvetica,Arial,sans-serif" font-size="8.50" fill="#606060"> &#160;light differential &gt; threshold &#160;</text>
</g>
<!-- ERROR -->
<g id="node8" class="node">
<title>ERROR</title>
<path fill="#2e1a1a" stroke="#4a2828" stroke-width="1.2" d="M343,-357C343,-357 298,-357 298,-357 292,-357 286,-351 286,-345 286,-345 286,-333 286,-333 286,-327 292,-321 298,-321 298,-321 343,-321 343,-321 349,-321 355,-327 355,-333 355,-333 355,-345 355,-345 355,-351 349,-357 343,-357"/>
<text text-anchor="middle" x="320.5" y="-336.2" font-family="Helvetica,Arial,sans-serif" font-size="11.00" fill="#b86d6d">Error</text>
</g>
<!-- AWAITING_OCC&#45;&gt;ERROR -->
<g id="edge8" class="edge">
<title>AWAITING_OCC&#45;&gt;ERROR</title>
<path fill="none" stroke="#7a3333" d="M135.3,-339C181.24,-339 240.44,-339 279.39,-339"/>
<polygon fill="#7a3333" stroke="#7a3333" points="279.44,-341.28 285.94,-339 279.44,-336.73 279.44,-341.28"/>
<text text-anchor="middle" x="210.5" y="-344.2" font-family="Helvetica,Arial,sans-serif" font-size="8.50" fill="#7a4444"> &#160;timeout — no occlusion &#160;</text>
</g>
<!-- AWAITING_PU -->
<g id="node6" class="node">
<title>AWAITING_PU</title>
<path fill="#1a1a2e" stroke="#252545" stroke-width="1.2" d="M351.5,-143C351.5,-143 255.5,-143 255.5,-143 249.5,-143 243.5,-137 243.5,-131 243.5,-131 243.5,-119 243.5,-119 243.5,-113 249.5,-107 255.5,-107 255.5,-107 351.5,-107 351.5,-107 357.5,-107 363.5,-113 363.5,-119 363.5,-119 363.5,-131 363.5,-131 363.5,-137 357.5,-143 351.5,-143"/>
<text text-anchor="middle" x="303.5" y="-122.2" font-family="Helvetica,Arial,sans-serif" font-size="11.00" fill="#9090d0">Awaiting Pickup</text>
</g>
<!-- PILL_DET&#45;&gt;AWAITING_PU -->
<g id="edge5" class="edge">
<title>PILL_DET&#45;&gt;AWAITING_PU</title>
<path fill="none" stroke="#404040" d="M151.98,-213.9C183.8,-195.44 234.45,-166.06 268.33,-146.41"/>
<polygon fill="#404040" stroke="#404040" points="269.55,-148.33 274.03,-143.1 267.26,-144.39 269.55,-148.33"/>
<text text-anchor="middle" x="237" y="-176.2" font-family="Helvetica,Arial,sans-serif" font-size="8.50" fill="#606060"> &#160;LED on &#160;</text>
</g>
<!-- CONFIRMED -->
<g id="node7" class="node">
<title>CONFIRMED</title>
<path fill="#1a2e1a" stroke="#2a402a" stroke-width="1.8" d="M422,-36C422,-36 351,-36 351,-36 345,-36 339,-30 339,-24 339,-24 339,-12 339,-12 339,-6 345,0 351,0 351,0 422,0 422,0 428,0 434,-6 434,-12 434,-12 434,-24 434,-24 434,-30 428,-36 422,-36"/>
<text text-anchor="middle" x="386.5" y="-15.2" font-family="Helvetica,Arial,sans-serif" font-size="11.00" fill="#6db86d">Confirmed</text>
</g>
<!-- AWAITING_PU&#45;&gt;CONFIRMED -->
<g id="edge6" class="edge">
<title>AWAITING_PU&#45;&gt;CONFIRMED</title>
<path fill="none" stroke="#404040" d="M306.78,-106.81C309.69,-94.81 314.87,-78.88 323.5,-67 331.07,-56.58 341.54,-47.36 351.77,-39.86"/>
<polygon fill="#404040" stroke="#404040" points="353.09,-41.71 357.08,-36.09 350.46,-38 353.09,-41.71"/>
<text text-anchor="middle" x="376.5" y="-69.2" font-family="Helvetica,Arial,sans-serif" font-size="8.50" fill="#606060"> &#160;sensor returns to baseline &#160;</text>
</g>
<!-- AWAITING_PU&#45;&gt;ERROR -->
<g id="edge9" class="edge">
<title>AWAITING_PU&#45;&gt;ERROR</title>
<path fill="none" stroke="#7a3333" d="M304.89,-143.29C307.92,-181.07 315.13,-271.02 318.59,-314.15"/>
<polygon fill="#7a3333" stroke="#7a3333" points="316.32,-314.35 319.11,-320.65 320.86,-313.99 316.32,-314.35"/>
<text text-anchor="middle" x="356" y="-229.7" font-family="Helvetica,Arial,sans-serif" font-size="8.50" fill="#7a4444"> &#160;timeout — no pickup &#160;</text>
</g>
<!-- CONFIRMED&#45;&gt;IDLE -->
<g id="edge7" class="edge">
<title>CONFIRMED&#45;&gt;IDLE</title>
<path fill="none" stroke="#2e2e2e" stroke-dasharray="5,2" d="M412.62,-36.12C437.28,-54.57 470.5,-86.41 470.5,-124 470.5,-554 470.5,-554 470.5,-554 470.5,-611.56 396.85,-639.47 350.12,-651.38"/>
<polygon fill="#2e2e2e" stroke="#2e2e2e" points="349.48,-649.2 343.72,-652.96 350.57,-653.61 349.48,-649.2"/>
<text text-anchor="middle" x="523" y="-336.7" font-family="Helvetica,Arial,sans-serif" font-size="8.50" fill="#404040"> &#160;logged to Home Assistant &#160;</text>
</g>
<!-- ERROR&#45;&gt;IDLE -->
<g id="edge10" class="edge">
<title>ERROR&#45;&gt;IDLE</title>
<path fill="none" stroke="#2e2e2e" stroke-dasharray="5,2" d="M318.15,-357.16C314.36,-385.7 307.09,-444.75 304.5,-495 301.94,-544.76 306.6,-603.02 309.82,-634.98"/>
<polygon fill="#2e2e2e" stroke="#2e2e2e" points="307.59,-635.53 310.52,-641.76 312.12,-635.06 307.59,-635.53"/>
<text text-anchor="middle" x="367" y="-497.2" font-family="Helvetica,Arial,sans-serif" font-size="8.50" fill="#404040"> &#160;error logged to Home Assistant &#160;</text>
</g>
</g>
</svg>
